<svg xmlns="http://www.w3.org/2000/svg" viewBox="0 0 64 64" width="64" height="64">
  <defs>
    <linearGradient id="cup" x1="0%" y1="0%" x2="100%" y2="100%">
      <stop offset="0%" style="stop-color:#8B5A2B"/>
      <stop offset="100%" style="stop-color:#5C3A1E"/>
    </linearGradient>
    <linearGradient id="steam" x1="0%" y1="100%" x2="0%" y2="0%">
      <stop offset="0%" style="stop-color:#D4A574;stop-opacity:0.8"/>
      <stop offset="100%" style="stop-color:#D4A574;stop-opacity:0"/>
    </linearGradient>
  </defs>
  <path d="M14 22 C14 18 18 14 24 14 L40 14 C46 14 50 18 50 22 L50 40 C50 48 44 52 36 52 L28 52 C20 52 14 48 14 40 Z" fill="url(#cup)"/>
  <path d="M50 26 C54 26 57 29 57 33 C57 37 54 40 50 40" fill="none" stroke="#8B5A2B" stroke-width="3" stroke-linecap="round"/>
  <ellipse cx="32" cy="22" rx="18" ry="4" fill="#6B4226" opacity="0.3"/>
  <path d="M26 8 C26 5 28 5 28 8 C28 11 26 11 26 8" fill="url(#steam)"/>
  <path d="M32 6 C32 3 34 3 34 6 C34 9 32 9 32 6" fill="url(#steam)"/>
  <path d="M38 8 C38 5 40 5 40 8 C40 11 38 11 38 8" fill="url(#steam)"/>
  <rect x="20" y="52" width="24" height="3" rx="1.5" fill="#5C3A1E"/>
</svg>
